<svg width="31" height="394" viewBox="0 0 31 394" fill="none" xmlns="http://www.w3.org/2000/svg">
<line x1="16" y1="380" x2="16" y2="15" stroke="#0B0955" stroke-width="2"/>
<circle cx="15.5" cy="15.5" r="15.5" fill="#20D9A1"/>
<path d="M11.9215 22V19.696H14.8015V11.65H16.1155L12.2275 13.918V11.29L15.6115 9.31H17.6095V19.696H20.3095V22H11.9215Z" fill="white"/>
<circle cx="15.5" cy="257.5" r="15.5" fill="#20D9A1"/>
<path d="M15.2335 264.198C14.3455 264.198 13.4875 264.072 12.6595 263.82C11.8435 263.568 11.1835 263.22 10.6795 262.776L11.5615 260.688C12.1015 261.084 12.6715 261.384 13.2715 261.588C13.8715 261.78 14.4895 261.876 15.1255 261.876C15.8695 261.876 16.4275 261.738 16.7995 261.462C17.1715 261.186 17.3575 260.778 17.3575 260.238C17.3575 259.734 17.1775 259.356 16.8175 259.104C16.4695 258.84 15.9475 258.708 15.2515 258.708H13.1275V256.494H14.9995C15.5995 256.494 16.0795 256.356 16.4395 256.08C16.7995 255.792 16.9795 255.402 16.9795 254.91C16.9795 254.43 16.8115 254.064 16.4755 253.812C16.1395 253.56 15.6535 253.434 15.0175 253.434C13.8055 253.434 12.7255 253.836 11.7775 254.64L10.8775 252.588C11.4175 252.12 12.0715 251.76 12.8395 251.508C13.6195 251.244 14.4355 251.112 15.2875 251.112C16.6555 251.112 17.7235 251.418 18.4915 252.03C19.2715 252.63 19.6615 253.47 19.6615 254.55C19.6615 255.294 19.4515 255.936 19.0315 256.476C18.6115 257.004 18.0355 257.358 17.3035 257.538V257.304C18.1675 257.448 18.8395 257.802 19.3195 258.366C19.7995 258.93 20.0395 259.638 20.0395 260.49C20.0395 261.642 19.6075 262.548 18.7435 263.208C17.8915 263.868 16.7215 264.198 15.2335 264.198Z" fill="white"/>
<circle cx="15.5" cy="136.5" r="15.5" fill="#20D9A1"/>
<path d="M11.4175 143V140.93L15.4495 136.736C15.9535 136.208 16.3195 135.74 16.5475 135.332C16.7755 134.924 16.8895 134.504 16.8895 134.072C16.8895 133.532 16.7155 133.124 16.3675 132.848C16.0195 132.572 15.5215 132.434 14.8735 132.434C14.3335 132.434 13.7995 132.536 13.2715 132.74C12.7555 132.932 12.2455 133.232 11.7415 133.64L10.8595 131.588C11.3875 131.132 12.0415 130.772 12.8215 130.508C13.6015 130.244 14.4115 130.112 15.2515 130.112C16.6675 130.112 17.7535 130.43 18.5095 131.066C19.2655 131.69 19.6435 132.584 19.6435 133.748C19.6435 134.528 19.4635 135.272 19.1035 135.98C18.7435 136.688 18.1615 137.438 17.3575 138.23L14.1175 141.416V140.696H20.1295V143H11.4175Z" fill="white"/>
<circle cx="15.5" cy="378.5" r="15.5" fill="#20D9A1"/>
<path d="M16.1875 385V382.678H10.7515V380.734L16.6195 372.31H18.8875V380.572H20.6155V382.678H18.8875V385H16.1875ZM16.1875 380.572V375.622H16.6375L12.7675 381.22V380.572H16.1875Z" fill="white"/>
</svg>
