<svg width="54" height="606" viewBox="0 0 54 606" fill="none" xmlns="http://www.w3.org/2000/svg">
<line x1="26.5" y1="598" x2="26.5" y2="27" stroke="#0B0955" stroke-width="3"/>
<circle cx="27" cy="27" r="27" fill="#20D9A1"/>
<path d="M21.5299 35V31.8H25.5299V20.625H27.3549L21.9549 23.775V20.125L26.6549 17.375H29.4299V31.8H33.1799V35H21.5299Z" fill="white"/>
<circle cx="27" cy="395" r="27" fill="#20D9A1"/>
<path d="M26.1299 403.275C24.8965 403.275 23.7049 403.1 22.5549 402.75C21.4215 402.4 20.5049 401.917 19.8049 401.3L21.0299 398.4C21.7799 398.95 22.5715 399.367 23.4049 399.65C24.2382 399.917 25.0965 400.05 25.9799 400.05C27.0132 400.05 27.7882 399.858 28.3049 399.475C28.8216 399.092 29.0799 398.525 29.0799 397.775C29.0799 397.075 28.8299 396.55 28.3299 396.2C27.8465 395.833 27.1215 395.65 26.1549 395.65H23.2049V392.575H25.8049C26.6382 392.575 27.3049 392.383 27.8049 392C28.3049 391.6 28.5549 391.058 28.5549 390.375C28.5549 389.708 28.3215 389.2 27.8549 388.85C27.3882 388.5 26.7132 388.325 25.8299 388.325C24.1465 388.325 22.6465 388.883 21.3299 390L20.0799 387.15C20.8299 386.5 21.7382 386 22.8049 385.65C23.8882 385.283 25.0215 385.1 26.2049 385.1C28.1049 385.1 29.5882 385.525 30.6549 386.375C31.7382 387.208 32.2799 388.375 32.2799 389.875C32.2799 390.908 31.9882 391.8 31.4049 392.55C30.8216 393.283 30.0215 393.775 29.0049 394.025V393.7C30.2049 393.9 31.1382 394.392 31.8049 395.175C32.4716 395.958 32.8049 396.942 32.8049 398.125C32.8049 399.725 32.2049 400.983 31.0049 401.9C29.8215 402.817 28.1965 403.275 26.1299 403.275Z" fill="white"/>
<circle cx="27" cy="211" r="27" fill="#20D9A1"/>
<path d="M20.8299 219V216.125L26.4299 210.3C27.1299 209.567 27.6382 208.917 27.9549 208.35C28.2715 207.783 28.4299 207.2 28.4299 206.6C28.4299 205.85 28.1882 205.283 27.7049 204.9C27.2215 204.517 26.5299 204.325 25.6299 204.325C24.8799 204.325 24.1382 204.467 23.4049 204.75C22.6882 205.017 21.9799 205.433 21.2799 206L20.0549 203.15C20.7882 202.517 21.6965 202.017 22.7799 201.65C23.8632 201.283 24.9882 201.1 26.1549 201.1C28.1215 201.1 29.6299 201.542 30.6799 202.425C31.7299 203.292 32.2549 204.533 32.2549 206.15C32.2549 207.233 32.0049 208.267 31.5049 209.25C31.0049 210.233 30.1966 211.275 29.0799 212.375L24.5799 216.8V215.8H32.9299V219H20.8299Z" fill="white"/>
<circle cx="27" cy="579" r="27" fill="#20D9A1"/>
<path d="M27.4549 587V583.775H19.9049V581.075L28.0549 569.375H31.2049V580.85H33.6049V583.775H31.2049V587H27.4549ZM27.4549 580.85V573.975H28.0799L22.7049 581.75V580.85H27.4549Z" fill="white"/>
</svg>
