<svg width="24" height="23" viewBox="0 0 24 23" fill="none" xmlns="http://www.w3.org/2000/svg">
<path d="M20.9 3.291C20.5478 2.32722 19.9082 1.4948 19.0677 0.906235C18.2271 0.317673 17.2261 0.00134394 16.2 0H7.80001C6.77389 0.00134394 5.77291 0.317673 4.93236 0.906235C4.09182 1.4948 3.45222 2.32722 3.10001 3.291L0.400005 10.718C0.134454 11.4495 -0.000924733 12.2218 4.75387e-06 13V14C0.00178908 14.7728 0.183437 15.5346 0.53057 16.225C0.877703 16.9155 1.38079 17.5156 2.00001 17.978C2.00001 17.986 2.00001 17.992 2.00001 18V20C2.00001 20.7957 2.31608 21.5587 2.87869 22.1213C3.4413 22.6839 4.20436 23 5.00001 23C5.79566 23 6.55872 22.6839 7.12133 22.1213C7.68394 21.5587 8.00001 20.7957 8.00001 20V19H16V20C16 20.7957 16.3161 21.5587 16.8787 22.1213C17.4413 22.6839 18.2044 23 19 23C19.7957 23 20.5587 22.6839 21.1213 22.1213C21.6839 21.5587 22 20.7957 22 20V18C22 17.992 22 17.986 22 17.978C22.6192 17.5156 23.1223 16.9155 23.4695 16.225C23.8166 15.5346 23.9982 14.7728 24 14V13C24.001 12.2221 23.8657 11.4501 23.6 10.719L20.9 3.291ZM4.98201 3.975C5.19344 3.39717 5.57694 2.89805 6.08082 2.54491C6.58469 2.19177 7.18471 2.00159 7.80001 2H16.2C16.8157 2.00118 17.4161 2.19117 17.9204 2.54434C18.4247 2.8975 18.8085 3.39685 19.02 3.975L21.208 10H2.79101L4.98201 3.975ZM6.00001 20C6.00001 20.2652 5.89465 20.5196 5.70711 20.7071C5.51958 20.8947 5.26522 21 5.00001 21C4.73479 21 4.48044 20.8947 4.2929 20.7071C4.10536 20.5196 4.00001 20.2652 4.00001 20V18.9C4.32914 18.9668 4.66416 19.0003 5.00001 19H6.00001V20ZM20 20C20 20.2652 19.8947 20.5196 19.7071 20.7071C19.5196 20.8947 19.2652 21 19 21C18.7348 21 18.4804 20.8947 18.2929 20.7071C18.1054 20.5196 18 20.2652 18 20V19H19C19.3359 19.0003 19.6709 18.9668 20 18.9V20ZM22 14C22 14.7957 21.6839 15.5587 21.1213 16.1213C20.5587 16.6839 19.7957 17 19 17H5.00001C4.20436 17 3.4413 16.6839 2.87869 16.1213C2.31608 15.5587 2.00001 14.7957 2.00001 14V13C2.00408 12.6633 2.04465 12.328 2.12101 12H4.00001V13C4.00001 13.2652 4.10536 13.5196 4.2929 13.7071C4.48044 13.8947 4.73479 14 5.00001 14C5.26522 14 5.51958 13.8947 5.70711 13.7071C5.89465 13.5196 6.00001 13.2652 6.00001 13V12H18V13C18 13.2652 18.1054 13.5196 18.2929 13.7071C18.4804 13.8947 18.7348 14 19 14C19.2652 14 19.5196 13.8947 19.7071 13.7071C19.8947 13.5196 20 13.2652 20 13V12H21.879C21.9554 12.328 21.996 12.6633 22 13V14Z" fill="#8981E7"/>
</svg>
