<svg width="22" height="24" viewBox="0 0 22 24" fill="none" xmlns="http://www.w3.org/2000/svg">
<path d="M10.9582 24.0085L10.2611 23.411C9.30013 22.6063 0.90918 15.3596 0.90918 10.0588C0.90918 4.50887 5.40829 0.00976562 10.9582 0.00976562C16.5081 0.00976562 21.0072 4.50887 21.0072 10.0588C21.0072 15.3596 12.6163 22.6064 11.6593 23.415L10.9582 24.0085ZM10.9582 2.18266C6.6104 2.18758 3.08704 5.71094 3.08212 10.0587C3.08212 13.3888 8.24455 18.7086 10.9582 21.1434C13.6719 18.7076 18.8343 13.3848 18.8343 10.0587C18.8293 5.71094 15.306 2.18763 10.9582 2.18266Z" fill="#8981E7"/>
<path d="M10.958 14.0429C8.75802 14.0429 6.97461 12.2595 6.97461 10.0595C6.97461 7.85958 8.75802 6.07617 10.958 6.07617C13.1579 6.07617 14.9413 7.85958 14.9413 10.0595C14.9413 12.2595 13.1579 14.0429 10.958 14.0429ZM10.958 8.0678C9.85798 8.0678 8.96628 8.9595 8.96628 10.0595C8.96628 11.1594 9.85798 12.0511 10.958 12.0511C12.0579 12.0511 12.9496 11.1594 12.9496 10.0595C12.9496 8.9595 12.058 8.0678 10.958 8.0678Z" fill="#8981E7"/>
</svg>
