<svg width="42" height="42" viewBox="0 0 42 42" fill="none" xmlns="http://www.w3.org/2000/svg">
  <rect x="5" y="9" width="31" height="23" fill="white"/>
  <path fill-rule="evenodd" clip-rule="evenodd" d="M18.9838 0.03077C14.0524 0.562193 9.61601 2.65199 6.19613 6.0545C4.40736 7.83423 3.16695 9.55738 2.08626 11.764C1.1273 13.7219 0.574748 15.4425 0.184376 17.6858C0.0235094 18.6105 0 19.0336 0 21.0043C0 22.975 0.0235094 23.3982 0.184376 24.3229C0.975148 28.8675 2.95216 32.7163 6.11664 35.8714C9.37245 39.1176 13.2076 41.0577 17.9152 41.84C19.1898 42.0517 22.7713 42.0538 24.0802 41.8434C28.6649 41.1066 32.6698 39.0802 35.8788 35.8738C39.0938 32.6613 41.0844 28.7318 41.851 24.0845C41.9684 23.3727 42 22.7192 42 21.0043C42 18.6239 41.9254 17.9406 41.4547 16.0033C40.7459 13.0872 39.2541 10.0777 37.3538 7.73066C36.6798 6.89804 35.115 5.33449 34.2818 4.66097C31.436 2.36057 27.8578 0.775256 24.1624 0.177548C23.3647 0.0485115 19.7656 -0.0535021 18.9838 0.03077ZM30.8868 12.8073C31.1406 12.9375 31.3543 13.3811 31.3547 13.7786C31.3551 14.2426 27.8714 30.7035 27.6819 31.1337C27.418 31.7321 26.9306 31.9098 26.2882 31.6415C26.1266 31.5741 24.8112 30.6461 23.3652 29.5794L20.736 27.6398L20.4356 27.9155C20.2704 28.0672 19.6172 28.6939 18.9841 29.3082C18.1785 30.0898 17.7388 30.4559 17.5192 30.5279C17.3467 30.5844 17.1924 30.6176 17.1764 30.6017C17.139 30.5643 17.5115 25.2807 17.5542 25.2426C21.6412 21.5996 27.3752 16.3504 27.3946 16.2345C27.4161 16.1045 27.3719 16.0763 27.148 16.0771C26.8012 16.0784 27.1781 15.8529 20.6278 19.9775C17.5535 21.9134 14.9214 23.5663 14.7786 23.6507L14.5192 23.8041L11.8798 22.9814C8.65994 21.9777 8.58538 21.9436 8.58538 21.4763C8.58538 21.1312 8.96268 20.8144 9.71959 20.5237C12.3193 19.5251 24.6356 14.7784 26.9573 13.8801C28.5396 13.268 29.9453 12.7402 30.0809 12.7072C30.3414 12.6439 30.6407 12.6811 30.8868 12.8073Z" fill="#69B1F2"/>
</svg>
