<svg width="42" height="42" viewBox="0 0 42 42" fill="none" xmlns="http://www.w3.org/2000/svg">
  <rect x="6" y="10" width="31" height="23" fill="white"/>
  <path fill-rule="evenodd" clip-rule="evenodd" d="M18.9882 0.030774C14.0547 0.562772 9.6468 2.64116 6.21059 6.05549C4.43749 7.81732 3.17623 9.57118 2.10564 11.764C1.13386 13.7542 0.590885 15.4434 0.20201 17.6858C-0.0490248 19.1336 -0.0707111 22.6796 0.162909 24.0845C0.581685 26.6022 1.23441 28.5993 2.32398 30.6964C3.33108 32.6348 4.55627 34.3022 6.12886 35.8747C9.35313 39.0986 13.2303 41.0601 17.9203 41.84C19.194 42.0517 22.7732 42.0538 24.0812 41.8434C26.3024 41.4861 28.2625 40.8666 30.242 39.8961C32.4118 38.8322 34.172 37.5751 35.8726 35.8747C39.0969 32.6507 41.0586 28.774 41.8385 24.0845C42.0538 22.7897 42.0538 19.2189 41.8385 17.9242C41.0647 13.2721 39.1117 9.38695 35.9521 6.2145C34.1908 4.4461 32.4594 3.20157 30.242 2.11006C28.2995 1.15383 26.3517 0.535339 24.1558 0.177306C23.3656 0.0485155 19.7696 -0.0534981 18.9882 0.030774ZM24.4508 11.8882C29.3817 12.0272 30.9138 12.188 31.9001 12.6701C33.4635 13.4343 33.8559 14.6162 34.0672 19.1973C34.1914 21.8913 33.9648 25.7954 33.6032 27.1906C33.2878 28.4079 32.5004 29.2572 31.3707 29.5987C29.9884 30.0166 23.1345 30.2814 17.7149 30.1263C10.8376 29.9295 9.80222 29.7059 8.83471 28.2091C8.32369 27.4186 8.09212 26.0204 7.93925 22.8034C7.81094 20.101 8.02246 16.4044 8.39466 14.8452C8.67379 13.676 9.53023 12.7426 10.6283 12.4108C11.4522 12.1618 14.7884 11.9195 18.2078 11.8602C21.08 11.8103 21.803 11.8136 24.4508 11.8882ZM18.3721 21.0043C18.3721 23.1803 18.4032 24.9483 18.4412 24.9332C18.6567 24.8478 25.1901 21.044 25.1901 21.0038C25.1901 20.9635 18.6545 17.1589 18.4419 17.0755C18.4035 17.0604 18.3721 18.8284 18.3721 21.0043Z" fill="#E61A1A"/>
</svg>
