<svg width="45" height="45" viewBox="0 0 45 45" fill="none" xmlns="http://www.w3.org/2000/svg">
<path fill-rule="evenodd" clip-rule="evenodd" d="M21.8229 0.602103C21.8238 0.85589 22.0206 1.54181 22.2601 2.12646C22.7683 3.3671 23.7845 4.24675 24.7772 4.30517L25.4264 4.3433L25.4273 6.46584L25.428 8.58818L24.7999 7.96129C24.1905 7.35307 22.8242 6.72229 22.6197 6.95476C22.4467 7.15135 22.8859 8.67038 23.2805 9.24048C23.7171 9.87166 24.5241 10.3907 25.0688 10.3907C25.4444 10.3907 25.448 10.4364 25.3932 14.5891C25.338 18.7689 25.3359 18.7894 24.8818 19.3052C24.6309 19.5902 24.1642 19.9085 23.8448 20.0127L23.2639 20.2019V18.8036C23.2639 17.4705 23.2857 17.3987 23.7301 17.2721C24.3575 17.0931 25.0673 16.1874 25.0673 15.5661C25.0673 15.1182 25.0114 15.077 24.5714 15.2012C24.2987 15.2781 23.9023 15.5247 23.6906 15.7493L23.3057 16.1575L23.2312 14.0427C23.1788 12.5514 23.0594 11.6996 22.8262 11.1525C22.4404 10.2474 21.3652 9.45162 20.2563 9.25011C19.6656 9.14269 19.4597 8.99387 19.3019 8.56091C19.0766 7.94305 18.2649 7.31576 17.6905 7.31576C17.2443 7.31576 17.2157 7.61239 17.5841 8.41536C17.7323 8.73844 17.8535 9.03814 17.8535 9.0816C17.8535 9.12506 17.4883 9.16073 17.042 9.16073C16.4494 9.16073 16.2304 9.07976 16.2304 8.86041C16.2304 8.39507 15.1684 7.13065 14.4062 6.68867C14.0288 6.46974 13.4629 6.29077 13.1487 6.29077C12.5779 6.29077 12.5775 6.29139 12.6985 7.16201C12.8544 8.28273 13.5043 9.39586 14.3496 9.98974C14.9696 10.4254 15.2017 10.4571 17.5628 10.4311C21.2658 10.3903 21.9825 10.8241 22.1389 13.201L22.2168 14.3882L21.626 13.593C20.9841 12.7291 19.8575 12.0424 19.0709 12.0352C18.6481 12.0313 18.5755 12.1139 18.5789 12.5944C18.5848 13.4353 19.1701 14.7434 19.8173 15.3625C20.3356 15.8584 21.3771 16.3315 21.9564 16.3344C22.1283 16.3354 22.1818 17.2081 22.1818 20.0116V23.6879L21.2621 22.9841C20.756 22.5973 20.2352 22.2805 20.1044 22.2805C19.9739 22.2805 19.7385 22.2246 19.5816 22.1561C19.1847 21.9829 19.2117 22.7664 19.6397 23.8375C19.9951 24.7274 20.954 25.5605 21.6226 25.5605C22.1299 25.5605 22.2509 25.9623 22.0963 27.1339C22.011 27.7804 21.806 28.2743 21.4588 28.6689C20.9932 29.1982 20.8323 29.2505 19.6709 29.2505C18.969 29.2505 18.3975 29.1812 18.4009 29.0967C18.4045 29.0122 18.5233 28.7123 18.6651 28.4305C18.8649 28.0332 18.9242 26.9709 18.9293 23.7055L18.9356 19.493L19.5793 19.2283C20.5809 18.8167 21.404 16.9506 20.584 16.9506C20.3993 16.9506 19.9634 17.1704 19.615 17.4391L18.9818 17.9276L18.8788 16.7944C18.7435 15.3047 18.0763 14.3424 16.7592 13.7375C16.2254 13.4925 15.759 13.1908 15.7228 13.067C15.6337 12.7634 14.7105 12.2357 14.2681 12.2357C13.9532 12.2357 13.9303 12.3119 14.0746 12.8835C14.3164 13.842 14.8991 14.431 15.867 14.6948C16.4009 14.8404 16.9255 15.1633 17.246 15.5433C17.7347 16.1226 17.7668 16.2721 17.8265 18.2329L17.8894 20.3089L17.2557 19.6765C16.5992 19.0213 15.4589 18.475 15.1707 18.6775C14.9536 18.8298 15.2095 20.0957 15.5909 20.7574C15.9623 21.4017 16.9096 22.0737 17.4478 22.0747C17.8348 22.0756 17.8535 22.1514 17.8535 23.7227V25.3699L17.2703 24.6146C16.6454 23.8057 15.8025 23.3055 15.064 23.3055C14.6951 23.3055 14.6073 23.4058 14.6073 23.8262C14.6073 25.1839 15.9586 26.9047 17.2056 27.1347C17.9513 27.2722 17.9378 27.2407 17.5841 28.0182C17.0753 29.1363 16.7455 29.2505 14.0261 29.2505C11.7169 29.2505 11.5415 29.2234 11.5415 28.8661C11.5415 28.5994 11.7144 28.4424 12.1067 28.3532C12.8766 28.1781 13.8859 26.9346 13.8859 26.1609C13.8859 25.776 13.7931 25.5605 13.6271 25.5605C13.1332 25.5605 12.4269 25.9693 11.9855 26.5109L11.5415 27.0553V24.5654C11.5415 22.1727 11.5562 22.0756 11.9202 22.0756C12.4751 22.0756 13.5253 20.8003 13.5253 20.1264C13.5253 19.6234 13.4785 19.5842 13.0293 19.7111C12.7564 19.788 12.3507 20.0446 12.1276 20.2814C11.7649 20.6662 11.7218 20.6738 11.7218 20.353C11.7218 19.8284 12.7063 18.7956 13.2064 18.7956C13.8151 18.7956 14.2926 18.3503 14.1469 17.919C13.9981 17.4781 12.992 17.4432 12.2989 17.8549C11.0709 18.584 10.4594 19.8655 10.4594 21.7092V22.6782L9.80293 22.1719C8.95982 21.5214 8.65593 21.5272 8.65593 22.1938C8.65593 22.834 9.55495 23.9205 10.0848 23.9205C10.4448 23.9205 10.4594 24.0243 10.4594 26.5855V29.2505H9.66172C9.01139 29.2505 8.76144 29.1338 8.30913 28.6197C7.69542 27.9221 7.61047 27.6105 8.03374 27.6105C8.90535 27.6105 10.0965 26.2206 10.098 25.2018C10.0992 24.4053 8.95404 24.7444 8.08929 25.7967L7.56485 26.4348L7.61444 22.9771L7.66404 19.5196L8.29524 19.4005C8.64241 19.3351 9.10644 19.1705 9.32664 19.0348C9.81267 18.7349 10.6397 17.1851 10.6397 16.5738C10.6397 15.5948 8.66946 16.398 7.92608 17.68L7.57621 18.2831L7.57513 15.8914C7.57386 13.4023 7.47918 13.1077 6.8074 13.5005C6.55167 13.65 6.49089 13.9661 6.48692 15.1641L6.48223 16.6431L6.17132 16.0724C5.8696 15.5183 4.34046 14.4907 3.81764 14.4907C3.47696 14.4907 3.63188 15.9342 4.05064 16.6608C4.44325 17.3416 5.37906 17.974 5.99584 17.9748L6.49179 17.9756V19.7339V21.4919L6.04201 20.8845C5.52983 20.1927 4.19077 19.4106 3.51808 19.4106C3.14333 19.4106 3.06596 19.5078 3.0692 19.9743C3.07984 21.4876 4.48419 23.4031 5.75238 23.6335L6.44617 23.7596L6.52804 25.8491C6.58016 27.1835 6.7138 28.1754 6.89757 28.5945L7.18558 29.2505H5.56229C4.0088 29.2505 3.91665 29.2248 3.41204 28.6512C2.78029 27.9331 2.74278 27.6109 3.29067 27.609C4.23766 27.606 5.58718 25.8895 5.58917 24.6854C5.59007 24.1696 5.5448 24.1302 5.09412 24.2541C4.82126 24.3291 4.42883 24.4613 4.22197 24.5476C3.72133 24.7567 2.70455 25.9268 2.70455 26.2938C2.70455 26.7532 2.36604 26.6369 1.83781 25.9961C1.29876 25.3424 0.711011 24.9455 0.28179 24.9455C-0.391258 24.9455 0.249147 26.6035 1.0717 26.991C1.47062 27.1787 1.66846 27.452 1.79723 27.9936C2.04863 29.0506 2.43727 29.5996 3.30257 30.1188C3.98103 30.5261 4.37977 30.5794 7.25826 30.6485C9.82493 30.71 10.4594 30.7812 10.4594 31.0077C10.4594 31.2262 10.3546 31.2451 9.9968 31.0903C9.37263 30.8205 9.37731 30.8181 9.37731 31.4187C9.37731 32.0433 10.2715 33.1454 10.7782 33.1454C10.9689 33.1454 11.265 33.3215 11.4363 33.5367C11.6076 33.7518 12.0058 34.0445 12.3209 34.187C13.1058 34.5418 13.1002 34.5201 12.5389 35.0219C11.9364 35.5607 11.434 36.7952 11.696 37.093C11.9472 37.3786 13.408 36.5449 13.6841 35.9584C13.8041 35.704 13.9157 35.2897 13.9323 35.0379C13.9613 34.6015 14.0365 34.5804 15.5635 34.5804H17.1643L16.6973 35.2112C16.1745 35.9174 16.0818 36.6303 16.5128 36.6303C17.207 36.6303 18.2023 35.6386 18.2103 34.9391C18.2149 34.5142 18.2406 34.5094 18.8415 34.8206C19.0965 34.9527 19.4721 35.3678 19.6761 35.7431C20.0088 36.3548 20.0409 36.6894 19.9874 38.9837C19.9309 41.3963 19.9017 41.571 19.4766 42.0497C19.2287 42.3289 18.7022 42.6765 18.3069 42.8225C17.1193 43.2606 17.2647 44.3309 18.4763 44.0701C19.3513 43.8815 19.9612 43.452 20.5042 42.6419L21.0096 41.8881V38.5415C21.0096 36.0051 21.064 35.1952 21.2345 35.1952C21.3582 35.1954 21.7704 34.8758 22.1508 34.4855C22.8632 33.7536 23.2639 32.6909 23.2639 31.5329C23.2639 31.0807 23.3494 30.8904 23.5524 30.8904C24.0226 30.8904 25.0673 29.5616 25.0673 28.9635C25.0673 28.3062 24.6756 28.2661 23.85 28.8382L23.2639 29.2445V28.1199C23.2639 26.9063 23.3043 26.8604 23.9853 27.303C24.3449 27.5367 25.4284 27.5974 29.3388 27.6033C32.3731 27.6076 34.435 27.5277 34.7492 27.393C35.0283 27.2733 35.5003 26.9129 35.7979 26.592C36.285 26.0668 36.4843 26.0017 37.7957 25.9383C39.0612 25.8772 39.3395 25.7926 39.915 25.2936C40.9399 24.4049 41.1795 23.6997 41.2641 21.3222C41.3381 19.2425 41.3399 19.2359 41.8641 18.9889C42.5125 18.6837 43.1018 17.7782 43.1018 17.0869C43.1018 16.6042 43.0638 16.5816 42.5359 16.7538C42.2246 16.8551 41.8263 17.0861 41.6506 17.2669C41.357 17.5689 41.3173 17.5677 41.1619 17.252C41.069 17.0632 40.8383 16.942 40.6497 16.983C40.3588 17.0459 40.2984 17.271 40.2528 18.4571C40.2059 19.6818 40.1608 19.8392 39.8921 19.715C39.1519 19.3725 38.5911 19.2486 38.5041 19.4085C38.377 19.6426 38.7292 20.6545 39.1018 21.125C39.2684 21.3355 39.5959 21.5907 39.8295 21.6922C40.1797 21.8443 40.2338 21.9749 40.1388 22.4374C39.7837 24.1645 39.1761 24.7405 37.7088 24.7405C36.8534 24.7405 36.7898 24.7057 36.7898 24.2377C36.7898 23.4179 36.4179 22.7313 35.7907 22.3929C35.4671 22.2184 35.1131 22.0756 35.0042 22.0756C34.6741 22.0756 34.7811 22.7965 35.2202 23.5331C35.7715 24.4578 35.5724 25.3024 34.6305 26.034C34.3217 26.2741 33.8148 26.3805 32.9818 26.3805H31.7791L32.1203 25.6197C32.4038 24.9873 32.4615 24.4029 32.4615 22.1604V19.4618L32.9773 19.3446C33.613 19.2001 34.5493 18.3278 34.9026 17.5515C35.2539 16.779 35.2476 15.9256 34.8904 15.9256C34.4052 15.9256 33.3816 16.5011 32.9071 17.0404L32.4474 17.563L32.4995 15.7705C32.5482 14.0973 32.5782 13.9739 32.9513 13.9136C33.4694 13.8297 34.2649 12.7508 34.2649 12.1318C34.2649 11.6898 34.218 11.6646 33.7064 11.8314C33.3993 11.9315 33.0341 12.1209 32.8949 12.2521C32.5958 12.5344 32.5693 12.3626 32.8276 11.8144C33.0566 11.3276 33.9219 10.8007 34.492 10.8007C35.0963 10.8007 35.573 10.3542 35.4276 9.92414C35.2788 9.48299 34.1511 9.44506 33.3124 9.85301C32.6105 10.1943 31.8323 11.1049 31.5713 11.8903C31.4658 12.2076 31.3794 13.1902 31.3794 14.0735V15.6796L30.7843 15.0032C30.2263 14.3689 28.7943 13.6709 28.5713 13.9245C28.3608 14.1637 28.7381 15.5706 29.1691 16.1526C29.6816 16.8451 30.4672 17.3606 31.0097 17.3606C31.3522 17.3606 31.3794 17.4838 31.3794 19.0305V20.7004L30.9513 20.1754C30.3781 19.4723 29.1763 18.7956 28.5011 18.7956C27.8676 18.7956 27.8385 18.9561 28.2335 20.274C28.6043 21.5108 29.6178 22.645 30.6047 22.9275C31.2956 23.1251 31.3794 23.2139 31.3794 23.7465C31.3794 24.713 30.9154 25.7097 30.2959 26.0738C29.8247 26.351 29.2528 26.3979 27.0201 26.3438L24.3155 26.278L23.7896 25.6085C23.1225 24.759 23.1252 24.3978 23.8001 24.2292C24.2944 24.1058 25.2477 23.0932 25.2477 22.6916C25.2477 22.5967 25.2969 22.3732 25.3572 22.1949C25.5429 21.6446 24.4576 21.7904 23.8188 22.4013L23.2639 22.932V22.2207C23.2639 21.5506 23.3102 21.496 24.0601 21.2814C25.0239 21.0055 25.9312 20.1787 26.2641 19.273C26.4122 18.8702 26.5101 17.843 26.5101 16.6921V14.7805L27.0924 14.5843C27.7191 14.3732 28.4939 13.2705 28.4939 12.5897C28.4939 12.2431 28.4104 12.2035 27.9164 12.3156C27.5988 12.388 27.1525 12.6461 26.9245 12.8896L26.5101 13.3322L26.5105 10.6826L26.5108 8.03325L27.0933 7.98651C28.1291 7.90349 29.1449 6.73746 29.3338 5.41482C29.4369 4.692 29.4167 4.6508 28.9594 4.6508C28.3025 4.6508 27.5503 5.12188 26.9824 5.88918L26.5101 6.52713V4.91627C26.5101 3.32159 26.515 3.30479 26.9878 3.2603C27.5653 3.20598 27.8923 2.91878 28.2353 2.16459C28.6005 1.36182 28.5601 1.16585 28.0291 1.16585C27.5296 1.16585 26.5101 2.16316 26.5101 2.65207C26.5101 2.85523 26.351 2.91324 25.9691 2.84949C25.6715 2.79988 25.428 2.68077 25.428 2.58463C25.428 2.22609 24.2657 0.922719 23.6038 0.538759C23.2264 0.319822 22.6709 0.14086 22.3694 0.14086C21.9205 0.14086 21.8215 0.224498 21.8229 0.602103ZM42.9215 24.3629C42.4751 24.6013 41.9071 24.8069 41.6591 24.8196C41.2167 24.8426 41.2073 24.8779 41.1566 26.7122L41.1051 28.5813L40.5303 27.9709C39.9492 27.3538 39.6286 27.1667 38.7285 26.919C38.3012 26.8016 38.2325 26.8452 38.2325 27.2343C38.2325 28.5809 39.5759 30.2754 40.6434 30.2754C41.1997 30.2754 41.2066 30.3089 40.8336 31.2024C40.3638 32.3275 39.7289 32.5304 36.6772 32.5304C34.2036 32.5304 34.0343 32.5066 34.4061 32.2104C34.8451 31.8609 35.2298 31.104 35.4154 30.2242C35.5216 29.7205 35.485 29.6604 35.0709 29.6604C34.0532 29.6604 32.6418 31.0511 32.6418 32.054V32.5712L31.0038 32.4994C29.4151 32.4302 29.35 32.4078 28.8396 31.7584C27.9456 30.6209 28.0766 30.4804 30.0326 30.4804C32.3976 30.4804 33.3699 29.9458 33.5744 28.533C33.6583 27.9538 32.886 28.0793 32.2759 28.7437C31.8254 29.2343 31.7282 29.2505 29.2432 29.2505C26.3454 29.2505 25.6365 29.4899 24.8571 30.732C24.4493 31.382 24.4343 31.5532 24.3788 36.2204C24.3427 39.265 24.3932 41.3137 24.5164 41.7875C24.8926 43.236 27.0693 44.6925 27.7319 43.9391C28.1011 43.5197 27.8926 43.0234 27.2843 42.8729C25.7187 42.4857 25.428 41.8643 25.428 38.905C25.428 37.4594 25.4967 36.6303 25.6165 36.6303C25.9061 36.6303 26.6904 35.6638 26.6904 35.3071C26.6904 34.8901 26.173 34.9026 25.7579 35.3296C25.4443 35.6523 25.428 35.6332 25.428 34.9418C25.428 34.335 25.5034 34.1933 25.8845 34.0847C26.3261 33.9586 27.0492 32.8996 27.0504 32.3767C27.0515 32.0099 26.305 32.0603 25.8021 32.4609C25.377 32.7992 25.3752 32.7977 25.4978 32.2047C25.6302 31.5647 26.5379 30.4804 26.9413 30.4804C27.076 30.4804 27.2365 30.765 27.2977 31.1126C27.4639 32.0583 28.043 32.8543 28.9128 33.3328C29.5924 33.7067 30.0221 33.7604 32.3381 33.7604C34.9064 33.7604 34.9863 33.7733 34.9863 34.1901C34.9863 34.8194 35.5007 35.704 36.1007 36.107C36.7802 36.5631 37.663 36.8485 37.7725 36.6472C37.9521 36.3169 37.456 34.8961 36.967 34.3403L36.4569 33.7604H37.9817C41.1936 33.7604 42.1889 32.5612 42.1962 28.6816C42.1999 26.6642 42.218 26.5677 42.6219 26.393C43.2147 26.137 44.0036 25.0089 44.0036 24.4172C44.0036 23.8164 43.95 23.8137 42.9215 24.3629ZM22.1818 30.7623C22.1818 32.1198 22.0004 32.8818 21.5439 33.4416C20.934 34.1897 20.3398 34.285 19.4243 33.7813C18.778 33.4256 18.2972 33.3494 16.6694 33.3442C15.1781 33.3395 14.7785 33.2844 15.0301 33.1181C15.3072 32.9351 15.8697 31.7906 15.8697 31.4095C15.8697 31.3494 15.6732 31.3004 15.4328 31.3004C14.8091 31.3004 13.8859 32.2442 13.8859 32.8818C13.8859 33.3567 13.8363 33.3904 13.3117 33.2711C12.9958 33.1993 12.5788 32.9802 12.3851 32.7842C12.0466 32.4421 11.5415 31.3209 11.5415 30.9124C11.5415 30.7941 13.388 30.6895 16.1853 30.6496C20.1638 30.5926 20.9068 30.5327 21.3703 30.2324C22.1387 29.7344 22.1818 29.7627 22.1818 30.7623Z" fill="#20D9A1"/>
</svg>
